<svg xmlns="http://www.w3.org/2000/svg" viewBox="0 0 120 61.8"><defs><style>.cls-1{fill:#ffffff;}</style></defs><g id="Layer_2" data-name="Layer 2"><g id="Layer_1-2" data-name="Layer 1"><path class="cls-1" d="M73.15,15.73a3.09,3.09,0,0,1-1.71-.43,1.83,1.83,0,0,1-.76-1.48H69.09A3.06,3.06,0,0,0,70,16a5,5,0,0,0,6.16,0,2.7,2.7,0,0,0-1.67-4.55c-1-.17-1.76-.24-2.28-.32-.79-.11-1.27-.45-1.27-1.23a1.42,1.42,0,0,1,1-1.28A2.55,2.55,0,0,1,73,8.43a2.24,2.24,0,0,1,1.55.5,1.75,1.75,0,0,1,.54,1.18h1.59A2.68,2.68,0,0,0,76,8.3a3.75,3.75,0,0,0-3-1.2,3.85,3.85,0,0,0-2.79,1.05A2.72,2.72,0,0,0,69.42,10a2.46,2.46,0,0,0,2.32,2.54c.66.1,1.73.23,2.14.29,1,.13,1.48.63,1.48,1.34a1.34,1.34,0,0,1-.47,1A2.59,2.59,0,0,1,73.15,15.73Zm20.69,1.08V7.34H92.21v9.47ZM0,0V36.68L25,49.93,51.49,0ZM94,3.3H92.1V5.17H94ZM61.55,61.55V7.31L32.8,61.55ZM0,61.55H20.66L0,50.61ZM107.43,46.77a7,7,0,0,0,1.89-.26V45.14a11.49,11.49,0,0,1-1.63.17c-.88,0-1.27-.37-1.27-1.29V38.54h2.81V37.17h-2.81V34.38l-1.59.38v2.41H103v1.37h1.83v5.67A2.32,2.32,0,0,0,107.43,46.77Zm1.38-31a3.08,3.08,0,0,1-1.7-.43,1.87,1.87,0,0,1-.77-1.48h-1.59a3.07,3.07,0,0,0,.92,2.17,5,5,0,0,0,6.16,0,2.7,2.7,0,0,0-1.67-4.55c-1-.17-1.76-.24-2.28-.32-.79-.11-1.27-.45-1.27-1.23a1.42,1.42,0,0,1,1-1.28,2.53,2.53,0,0,1,1.1-.18,2.25,2.25,0,0,1,1.56.5,1.75,1.75,0,0,1,.54,1.18h1.59a2.68,2.68,0,0,0-.67-1.81,3.76,3.76,0,0,0-3-1.2,3.81,3.81,0,0,0-2.78,1.05,2.72,2.72,0,0,0-.79,1.85,2.46,2.46,0,0,0,2.32,2.54c.66.1,1.72.23,2.13.29,1,.13,1.48.63,1.48,1.34a1.34,1.34,0,0,1-.46,1A2.61,2.61,0,0,1,108.81,15.73Zm-9.13,0A3.09,3.09,0,0,1,98,15.3a1.86,1.86,0,0,1-.76-1.48H95.62A3.06,3.06,0,0,0,96.53,16a5,5,0,0,0,6.16,0A2.7,2.7,0,0,0,101,11.44c-1-.17-1.75-.24-2.28-.32-.79-.11-1.27-.45-1.27-1.23a1.42,1.42,0,0,1,1-1.28,2.55,2.55,0,0,1,1.11-.18,2.24,2.24,0,0,1,1.55.5,1.7,1.7,0,0,1,.54,1.18h1.59a2.68,2.68,0,0,0-.67-1.81,3.75,3.75,0,0,0-3-1.2,3.85,3.85,0,0,0-2.79,1.05A2.72,2.72,0,0,0,96,10a2.46,2.46,0,0,0,2.32,2.54c.66.1,1.73.23,2.14.29,1,.13,1.48.63,1.48,1.34a1.34,1.34,0,0,1-.47,1A2.59,2.59,0,0,1,99.68,15.73ZM98.3,46.89a4.37,4.37,0,0,0,2.42-.72,3.46,3.46,0,0,0,1.46-2.34h-1.55a2,2,0,0,1-.57,1,2.33,2.33,0,0,1-1.76.62,2.38,2.38,0,0,1-1.74-.67,3.49,3.49,0,0,1-.91-2.38h6.7l0-1a4.89,4.89,0,0,0-1.2-3.34,3.84,3.84,0,0,0-2.88-1.21,4.07,4.07,0,0,0-3.58,2,5.82,5.82,0,0,0-.73,3,5.33,5.33,0,0,0,1.18,3.52A4.05,4.05,0,0,0,98.3,46.89Zm0-8.61a2.23,2.23,0,0,1,1.87.86,3.31,3.31,0,0,1,.58,1.92H95.68A2.63,2.63,0,0,1,98.29,38.28Zm-25.22,8.6a4.22,4.22,0,0,0,3.09-1.06,2.7,2.7,0,0,0-1.67-4.55c-1-.17-1.76-.24-2.28-.32-.79-.11-1.27-.45-1.27-1.23a1.42,1.42,0,0,1,1-1.28A2.55,2.55,0,0,1,73,38.26a2.24,2.24,0,0,1,1.55.5,1.73,1.73,0,0,1,.54,1.18h1.59A2.68,2.68,0,0,0,76,38.13a3.75,3.75,0,0,0-3-1.2,3.85,3.85,0,0,0-2.79,1,2.72,2.72,0,0,0-.79,1.85,2.46,2.46,0,0,0,2.32,2.54c.66.1,1.73.23,2.14.28,1,.14,1.48.64,1.48,1.35a1.34,1.34,0,0,1-.47,1,2.59,2.59,0,0,1-1.74.53,3.09,3.09,0,0,1-1.71-.43,1.83,1.83,0,0,1-.76-1.48H69.09A3.06,3.06,0,0,0,70,45.82,4.26,4.26,0,0,0,73.07,46.88Zm16-.24h1.59V38.52h2.74V37.17H90.67V35.58A1.23,1.23,0,0,1,92,34.29a10.87,10.87,0,0,1,1.57.15V33.11a10.1,10.1,0,0,0-1.76-.17,2.57,2.57,0,0,0-2.75,2.55v1.68H87.36v1.35h1.72Zm-3-1.85V40.2a3.76,3.76,0,0,0-.28-1.46,3.31,3.31,0,0,0-3.34-1.81,4.1,4.1,0,0,0-2.92,1,2.82,2.82,0,0,0-.82,2h1.55a1.54,1.54,0,0,1,.47-1.14,2.34,2.34,0,0,1,1.72-.56,2.15,2.15,0,0,1,1.56.49,1.85,1.85,0,0,1,.48,1.44v.69L81.58,41c-2.58.15-3.37,1.74-3.37,3a3,3,0,0,0,3.26,2.91,3.43,3.43,0,0,0,3-1.55h0a1.34,1.34,0,0,0,1.36,1.44,2.16,2.16,0,0,0,1-.22V45.37a2.51,2.51,0,0,1-.41.05C86.24,45.42,86,45.29,86,44.79Zm-1.58-2.15a3.06,3.06,0,0,1-.8,2.15,2.7,2.7,0,0,1-2,.77c-1.34,0-1.87-.79-1.87-1.63,0-1.2,1.12-1.65,2.08-1.71l2.54-.14Zm32.84-5.47-2.65,7.47-2.79-7.47h-1.8l3.78,9.47-.6,1.59a1.35,1.35,0,0,1-1.42,1A4.33,4.33,0,0,1,110.7,49v1.38a5,5,0,0,0,1.44.19,2.57,2.57,0,0,0,2.56-2L119,37.17ZM93.12,51.84a3.21,3.21,0,0,0-2.86,1.67l-.13-1.42H88.74v9.47h1.59v-4.4a6.26,6.26,0,0,1,.34-2.42,2.32,2.32,0,0,1,2.06-1.46c1.5,0,2.08.85,2.08,2.27v6H96.4V55.32C96.4,53.13,95.27,51.84,93.12,51.84Zm7.86,7.1V53.45h2.81V52.09H101V49.3l-1.59.37v2.42H97.55v1.36h1.84v5.67a2.32,2.32,0,0,0,2.6,2.57,7,7,0,0,0,1.89-.26V60.06a11.7,11.7,0,0,1-1.63.17C101.37,60.23,101,59.85,101,58.94Zm8-7.1a4.06,4.06,0,0,0-3.58,2,5.82,5.82,0,0,0-.73,3,5.35,5.35,0,0,0,1.18,3.52,4,4,0,0,0,3.14,1.42,4.36,4.36,0,0,0,2.42-.71,3.5,3.5,0,0,0,1.46-2.34h-1.55a2,2,0,0,1-.57,1,2.37,2.37,0,0,1-1.76.62,2.41,2.41,0,0,1-1.74-.68,3.47,3.47,0,0,1-.91-2.37H113l0-1a4.86,4.86,0,0,0-1.2-3.33A3.81,3.81,0,0,0,108.93,51.84ZM106.33,56a2.62,2.62,0,0,1,2.6-2.79,2.25,2.25,0,0,1,1.87.86,3.36,3.36,0,0,1,.58,1.93ZM75,59.78a2.22,2.22,0,0,1-1.61.63,2.42,2.42,0,0,1-1.65-.61,3.89,3.89,0,0,1-.95-3,3.85,3.85,0,0,1,.95-3,2.38,2.38,0,0,1,1.65-.62,2.17,2.17,0,0,1,1.53.58,2.36,2.36,0,0,1,.68,1.48h1.61a3.66,3.66,0,0,0-1.13-2.44,3.78,3.78,0,0,0-2.69-1A3.93,3.93,0,0,0,70,53.62a5.57,5.57,0,0,0-.79,3.2A5.57,5.57,0,0,0,70,60a4,4,0,0,0,3.46,1.78,3.73,3.73,0,0,0,2.73-1,3.57,3.57,0,0,0,1.11-2.4H75.64A2.38,2.38,0,0,1,75,59.78Zm7.78-7.94a4,4,0,0,0-3.57,2,5.72,5.72,0,0,0-.73,3,5.4,5.4,0,0,0,1.17,3.52A4,4,0,0,0,82.8,61.8a4.33,4.33,0,0,0,2.41-.71,3.5,3.5,0,0,0,1.46-2.34H85.12a2,2,0,0,1-.56,1,2.68,2.68,0,0,1-3.5-.06,3.48,3.48,0,0,1-.92-2.37h6.7l0-1a4.86,4.86,0,0,0-1.2-3.33A3.8,3.8,0,0,0,82.78,51.84ZM80.18,56a2.63,2.63,0,0,1,2.6-2.79,2.25,2.25,0,0,1,1.87.86A3.29,3.29,0,0,1,85.23,56Zm1.48-39.17,2.53-7.24,2.47,7.24h1.53l2.45-9.47H89.09l-1.84,7.15-2.37-7H83.51l-2.41,7L79.28,7.34H77.71l2.43,9.47ZM119.25,52a2.94,2.94,0,0,0-2.83,1.72l-.13-1.66h-1.4v9.47h1.57V57.35a4.28,4.28,0,0,1,.86-3,2.61,2.61,0,0,1,1.8-.75,4.37,4.37,0,0,1,.88.08V52.09A4.74,4.74,0,0,0,119.25,52Z"/></g></g></svg>